<svg width="19" height="21" viewBox="0 0 19 21" fill="none" xmlns="http://www.w3.org/2000/svg">
<path d="M9.5 20.9166C10.1451 20.9175 10.7744 20.7173 11.3005 20.3439C11.8266 19.9705 12.2233 19.4425 12.4354 18.8333H6.56458C6.77673 19.4425 7.17341 19.9705 7.69949 20.3439C8.22557 20.7173 8.8549 20.9175 9.5 20.9166V20.9166ZM16.7917 13.1937V8.41665C16.7917 5.0656 14.5156 2.24269 11.4323 1.39373C11.1271 0.62498 10.3813 0.083313 9.5 0.083313C8.61875 0.083313 7.87292 0.62498 7.56771 1.39373C4.48438 2.24373 2.20833 5.0656 2.20833 8.41665V13.1937L0.430209 14.9719C0.33329 15.0684 0.256428 15.1832 0.204047 15.3096C0.151667 15.436 0.124803 15.5715 0.125001 15.7083V16.75C0.125001 17.0262 0.234748 17.2912 0.430098 17.4865C0.625449 17.6819 0.890401 17.7916 1.16667 17.7916H17.8333C18.1096 17.7916 18.3746 17.6819 18.5699 17.4865C18.7653 17.2912 18.875 17.0262 18.875 16.75V15.7083C18.8752 15.5715 18.8483 15.436 18.796 15.3096C18.7436 15.1832 18.6667 15.0684 18.5698 14.9719L16.7917 13.1937Z" fill="white" fill-opacity="0.75"/>
</svg>
