<svg width="27" height="28" viewBox="0 0 27 28" fill="none" xmlns="http://www.w3.org/2000/svg">
<g clip-path="url(#clip0_1_943)">
<path d="M26.3051 17.1413C24.5264 24.2768 17.297 28.6144 10.1717 26.8356C3.03602 25.057 -1.30157 17.8279 0.47721 10.7027C2.25588 3.56715 9.4748 -0.770433 16.6105 1.00835C23.7358 2.77662 28.0839 10.0057 26.3051 17.1413Z" fill="url(#paint0_linear_1_943)"/>
<path d="M19.7293 12.263C19.9893 10.495 18.6477 9.53811 16.7964 8.90369L17.3996 6.5012L15.9436 6.13719L15.3611 8.47728C14.9763 8.38367 14.5811 8.29007 14.1859 8.20687L14.7683 5.85638L13.3123 5.49236L12.7194 7.88445C12.397 7.81165 12.085 7.73885 11.7834 7.66604V7.65564L9.76572 7.15643L9.38091 8.71648C9.38091 8.71648 10.4625 8.96609 10.4417 8.97649C11.0346 9.1221 11.1386 9.51731 11.1178 9.82933L10.4313 12.5646C10.4729 12.575 10.525 12.5854 10.5874 12.6166C10.5354 12.6062 10.4833 12.5958 10.4313 12.575L9.47451 16.4024C9.40171 16.5792 9.2145 16.8496 8.80889 16.7456C8.81929 16.7664 7.74805 16.4856 7.74805 16.4856L7.02002 18.16L8.92329 18.6385C9.2769 18.7321 9.62012 18.8153 9.96333 18.9089L9.36011 21.3322L10.8162 21.6962L11.4194 19.2937C11.8146 19.3977 12.2098 19.5017 12.5842 19.5953L11.9914 21.9874L13.4475 22.3514L14.0507 19.9281C16.5468 20.3961 18.4188 20.2089 19.1989 17.952C19.8333 16.1424 19.1677 15.0919 17.8572 14.4055C18.8245 14.1871 19.5421 13.5527 19.7293 12.263V12.263ZM16.3908 16.9432C15.9436 18.7529 12.8858 17.7752 11.8978 17.5256L12.6986 14.3119C13.6867 14.5615 16.8692 15.0503 16.3908 16.9432ZM16.8484 12.2318C16.4324 13.8855 13.8947 13.043 13.073 12.835L13.8011 9.92293C14.6227 10.1309 17.2748 10.5158 16.8484 12.2318Z" fill="white"/>
</g>
<defs>
<linearGradient id="paint0_linear_1_943" x1="13.3837" y1="0.603115" x2="13.3837" y2="27.2318" gradientUnits="userSpaceOnUse">
<stop stop-color="#F9AA4B"/>
<stop offset="1" stop-color="#F7931A"/>
</linearGradient>
<clipPath id="clip0_1_943">
<rect width="26.625" height="26.625" fill="white" transform="translate(0.0782471 0.609375)"/>
</clipPath>
</defs>
</svg>
