<svg width="23" height="21" viewBox="0 0 23 21" fill="none" xmlns="http://www.w3.org/2000/svg">
<path d="M21.3047 16.5059C21.9087 15.4054 22.2314 14.1726 22.244 12.9173C22.2566 11.662 21.9587 10.423 21.3769 9.31058C20.7951 8.19816 19.9473 7.24679 18.9091 6.5411C17.8708 5.8354 16.6742 5.39725 15.4258 5.26564C15.0295 4.31111 14.4432 3.4472 13.7024 2.7265C12.9616 2.00579 12.082 1.44338 11.1169 1.07348C10.1519 0.703584 9.12162 0.533945 8.08892 0.574889C7.05622 0.615833 6.04266 0.866504 5.10992 1.31164C4.17718 1.75678 3.34479 2.38708 2.66341 3.16416C1.98202 3.94125 1.4659 4.84887 1.14647 5.83178C0.827029 6.81468 0.710955 7.85231 0.805309 8.88151C0.899664 9.9107 1.20247 10.9099 1.69531 11.8184L1.07031 14.0156C1.01397 14.216 1.01202 14.4278 1.06466 14.6292C1.11729 14.8305 1.22262 15.0143 1.3698 15.1615C1.51698 15.3086 1.70071 15.414 1.90209 15.4666C2.10347 15.5192 2.31524 15.5173 2.51562 15.461L4.71288 14.8359C5.59697 15.3238 6.56995 15.6293 7.57421 15.7344C7.98103 16.727 8.59292 17.6225 9.36983 18.3622C10.1467 19.102 11.0711 19.6693 12.0825 20.027C13.0938 20.3847 14.1693 20.5247 15.2386 20.438C16.3078 20.3512 17.3467 20.0396 18.2871 19.5234L20.4844 20.1485C20.6851 20.2082 20.8982 20.2126 21.1012 20.1612C21.3042 20.1097 21.4895 20.0044 21.6376 19.8564C21.7857 19.7083 21.891 19.523 21.9424 19.32C21.9938 19.117 21.9894 18.9038 21.9297 18.7031L21.3047 16.5059ZM4.79101 13.6152C4.73434 13.6147 4.67805 13.6246 4.62499 13.6445L2.19335 14.3379L2.88671 11.9063C2.91109 11.8301 2.91847 11.7496 2.90835 11.6703C2.89823 11.591 2.87084 11.5148 2.82812 11.4473C2.029 10.0987 1.74959 8.50475 2.04234 6.96474C2.33509 5.42472 3.17987 4.04451 4.4181 3.08319C5.65633 2.12188 7.20287 1.64556 8.76739 1.74366C10.3319 1.84175 11.8068 2.50752 12.9153 3.61597C14.0237 4.72443 14.6895 6.19935 14.7876 7.76387C14.8857 9.32839 14.4094 10.8749 13.4481 12.1132C12.4867 13.3514 11.1065 14.1962 9.56652 14.4889C8.02651 14.7817 6.43259 14.5023 5.08398 13.7031C4.9969 13.6461 4.89512 13.6155 4.79101 13.6152V13.6152ZM20.1133 16.5938L20.8066 19.0254L18.375 18.332C18.2989 18.3077 18.2183 18.3003 18.139 18.3104C18.0597 18.3205 17.9836 18.3479 17.916 18.3906C17.1561 18.84 16.312 19.1288 15.4361 19.239C14.5601 19.3492 13.6708 19.2786 12.8233 19.0315C11.9757 18.7843 11.1878 18.366 10.5084 17.8022C9.82893 17.2385 9.27234 16.5413 8.87304 15.7539C10.8015 15.6252 12.6092 14.7692 13.9307 13.3588C15.2523 11.9485 15.989 10.089 15.9922 8.15626C15.99 7.60105 15.9278 7.04771 15.8066 6.50587C16.8261 6.69735 17.7843 7.13166 18.6003 7.77205C19.4163 8.41243 20.0659 9.24002 20.4942 10.1847C20.9225 11.1294 21.1168 12.1634 21.0607 13.1992C21.0046 14.2349 20.6997 15.2419 20.1719 16.1348C20.1291 16.2024 20.1018 16.2785 20.0916 16.3578C20.0815 16.4371 20.0889 16.5176 20.1133 16.5938V16.5938Z" fill="white" fill-opacity="0.75"/>
</svg>
