<svg width="27" height="27" viewBox="0 0 27 27" fill="none" xmlns="http://www.w3.org/2000/svg">
<path d="M20.6615 6.18228H5.49487C4.63292 6.18228 3.80627 6.52469 3.19678 7.13418C2.58728 7.74368 2.24487 8.57033 2.24487 9.43228V18.0989C2.24487 18.9609 2.58728 19.7876 3.19678 20.397C3.80627 21.0065 4.63292 21.3489 5.49487 21.3489H20.6615C21.5235 21.3489 22.3501 21.0065 22.9596 20.397C23.5691 19.7876 23.9115 18.9609 23.9115 18.0989V9.43228C23.9115 8.57033 23.5691 7.74368 22.9596 7.13418C22.3501 6.52469 21.5235 6.18228 20.6615 6.18228ZM4.41154 9.43228C4.41154 9.14496 4.52568 8.86941 4.72884 8.66625C4.93201 8.46309 5.20755 8.34895 5.49487 8.34895H20.6615C20.9489 8.34895 21.2244 8.46309 21.4276 8.66625C21.6307 8.86941 21.7449 9.14496 21.7449 9.43228V10.5156H4.41154V9.43228ZM21.7449 18.0989C21.7449 18.3863 21.6307 18.6618 21.4276 18.865C21.2244 19.0681 20.9489 19.1823 20.6615 19.1823H5.49487C5.20755 19.1823 4.93201 19.0681 4.72884 18.865C4.52568 18.6618 4.41154 18.3863 4.41154 18.0989V12.6823H21.7449V18.0989Z" fill="#A2A3A4"/>
<path d="M7.66146 17.0156H11.9948C12.2821 17.0156 12.5577 16.9015 12.7608 16.6983C12.964 16.4951 13.0781 16.2196 13.0781 15.9323C13.0781 15.645 12.964 15.3694 12.7608 15.1662C12.5577 14.9631 12.2821 14.8489 11.9948 14.8489H7.66146C7.37414 14.8489 7.09859 14.9631 6.89543 15.1662C6.69226 15.3694 6.57812 15.645 6.57812 15.9323C6.57812 16.2196 6.69226 16.4951 6.89543 16.6983C7.09859 16.9015 7.37414 17.0156 7.66146 17.0156Z" fill="#A2A3A4"/>
<path d="M16.3282 17.0156H18.4949C18.7822 17.0156 19.0577 16.9015 19.2609 16.6983C19.4641 16.4951 19.5782 16.2196 19.5782 15.9323C19.5782 15.645 19.4641 15.3694 19.2609 15.1662C19.0577 14.9631 18.7822 14.8489 18.4949 14.8489H16.3282C16.0409 14.8489 15.7653 14.9631 15.5622 15.1662C15.359 15.3694 15.2449 15.645 15.2449 15.9323C15.2449 16.2196 15.359 16.4951 15.5622 16.6983C15.7653 16.9015 16.0409 17.0156 16.3282 17.0156V17.0156Z" fill="#A2A3A4"/>
</svg>
