<svg width="27" height="27" viewBox="0 0 27 27" fill="none" xmlns="http://www.w3.org/2000/svg">
<g clip-path="url(#clip0_1_946)">
<rect x="0.0782471" y="0.234375" width="26.625" height="26.625" rx="13.3125" fill="white"/>
<path d="M13.5567 0.234375L13.3907 0.856563V18.911L13.5567 19.0937L21.1564 14.14L13.5567 0.234375Z" fill="#343434"/>
<path d="M13.3907 0.234375L5.62512 14.1399L13.3907 19.0938V10.3307V0.234375Z" fill="#8C8C8C"/>
<path d="M13.4851 20.4167L13.3907 20.5349V26.5763L13.4851 26.8594L21.1564 15.7656L13.4851 20.4167Z" fill="#3C3C3B"/>
<path d="M13.3907 26.8594V20.4167L5.62512 15.7656L13.3907 26.8594Z" fill="#8C8C8C"/>
<path d="M13.3907 19.0938L21.1564 14.0767L13.3907 10.2188V19.0938Z" fill="#141414"/>
<path d="M5.62512 14.0767L13.3907 19.0938V10.2188L5.62512 14.0767Z" fill="#393939"/>
</g>
<defs>
<clipPath id="clip0_1_946">
<rect x="0.0782471" y="0.234375" width="26.625" height="26.625" rx="13.3125" fill="white"/>
</clipPath>
</defs>
</svg>
