<?xml version="1.0" encoding="utf-8"?>
<!-- Svg Vector Icons : http://www.onlinewebfonts.com/icon -->
<!DOCTYPE svg PUBLIC "-//W3C//DTD SVG 1.1//EN" "http://www.w3.org/Graphics/SVG/1.1/DTD/svg11.dtd">
<svg version="1.1" xmlns="http://www.w3.org/2000/svg" xmlns:xlink="http://www.w3.org/1999/xlink" x="0px" y="0px" viewBox="0 0 1000 1000" enable-background="new 0 0 1000 1000" xml:space="preserve">
<metadata> Svg Vector Icons : http://www.onlinewebfonts.com/icon </metadata>
<g><g transform="translate(0.000000,307.000000) scale(0.100000,-0.100000)"><path d="M2569.2,996.1c-182.3-38.4-362.6-180.3-448.9-354.9c-42.2-86.3-46-122.8-51.8-397.1c-3.8-166.9-9.6-303.1-13.4-303.1c-1.9,0-46,19.2-97.8,42.2c-126.6,55.6-320.4,53.7-473.9-3.8c-151.6-57.6-301.2-205.3-360.7-358.8c-38.4-99.8-44.1-153.5-51.8-508.4l-7.7-395.2l-253.2-7.7c-213-5.8-264.8-11.5-339.6-49.9c-142-69.1-239.8-166.9-308.9-305.1c-53.7-111.3-61.4-143.9-61.4-282c0-189.9,55.6-330,184.2-456.6c145.8-145.8,234.1-176.5,525.7-184.2l253.2-7.7l7.7-395.2c7.7-354.9,13.4-408.7,51.8-508.4c59.5-151.6,209.1-301.2,360.7-358.8c151.6-59.5,345.3-59.5,473.9-3.8c51.8,23,95.9,42.2,97.8,42.2c3.8,0,9.6-136.2,13.4-303.1c5.8-274.4,9.6-310.8,51.8-397.1c63.3-128.5,191.9-251.3,324.2-312.7c155.4-71,370.3-71,525.7,0c132.4,61.4,260.9,184.2,324.2,312.7l46,95.9l9.6,911.3l9.6,911.3H5000h1640.4l9.6-911.3c9.6-878.7,11.5-915.1,49.9-997.6c65.2-136.2,168.8-241.7,307-308.9c103.6-51.8,145.8-61.4,262.8-61.4c74.8-1.9,172.7,7.7,216.8,21.1c113.2,32.6,255.2,134.3,322.3,228.3c105.5,147.7,124.7,234.1,126.6,539.1c0,149.6,3.8,272.4,7.7,272.4c3.8,0,48-19.2,99.7-42.2c128.5-55.6,322.3-55.6,473.9,3.8c151.6,57.6,301.2,207.2,360.7,358.8c38.4,99.7,44.1,153.5,51.8,508.4l7.7,395.2l253.3,7.7c291.6,7.7,379.8,38.4,525.6,184.2c126.7,124.7,184.2,266.7,184.2,454.7c1.9,188-55.6,326.2-184.2,454.7c-145.8,145.8-234,176.5-525.6,184.2l-253.3,7.7l-7.7,395.2c-7.6,354.9-13.4,408.7-51.8,508.4C8817.9-228,8668.2-78.3,8516.6-20.8c-151.5,59.5-345.3,59.5-473.9,3.8c-51.8-23-95.9-42.2-97.8-42.2c-3.9,0-9.6,136.2-13.5,303.1c-5.7,272.4-11.5,310.8-53.7,397.1c-63.3,128.5-189.9,251.3-322.3,312.7c-88.2,42.2-138.1,49.9-262.8,51.8c-136.2,0-168.8-7.7-282-63.3c-141.9-69.1-245.6-172.7-310.8-310.8c-38.4-82.5-40.3-119-49.9-997.6l-9.6-911.3H5000H3359.6l-9.6,911.3l-9.6,911.3l-46,95.9c-63.3,124.7-191.9,251.3-314.6,307C2866.5,999.9,2688.1,1021,2569.2,996.1z M2826.3,668c76.7-28.8,140-92.1,180.3-180.3c34.5-72.9,36.5-182.3,36.5-2417.4c0-2235.1-1.9-2344.5-36.5-2417.4c-124.7-272.4-473.9-272.4-598.6,0c-34.5,72.9-36.5,182.3-36.5,2413.5c0,2534.4-5.8,2407.8,101.7,2524.8C2555.7,681.4,2707.3,714,2826.3,668z M7411.6,668c76.7-28.8,140.1-92.1,180.4-180.3c34.5-72.9,36.5-182.3,36.5-2417.4c0-2235.1-1.9-2344.5-36.5-2417.4c-124.7-272.4-473.9-272.4-598.6,0c-34.6,72.9-36.5,182.3-36.5,2407.8c0,1467.7,7.7,2356,19.2,2396.3C7026,631.5,7238.9,735.1,7411.6,668z M1865.1-325.8c92.1-42.2,153.5-115.1,180.3-214.9c13.4-48,19.2-542.9,15.3-1431.2c-5.8-1331.5-5.8-1360.3-46-1425.5c-105.5-182.3-347.3-226.4-500.7-90.2c-126.6,111.3-120.9,46.1-120.9,1555.9c0,922.8,5.8,1389,21.1,1425.5C1481.4-325.8,1684.7-245.2,1865.1-325.8z M8390-310.5c72.9-26.9,159.2-109.4,189.9-184.2c21.1-51.8,26.9-312.7,26.9-1435.1c0-1511.8,5.7-1446.6-120.9-1557.9c-153.5-136.2-395.2-92.1-500.7,90.2c-40.3,65.2-40.3,94-46.1,1425.5c-3.8,888.3,1.9,1383.3,15.4,1431.2C8004.4-350.8,8209.7-241.4,8390-310.5z M1066.9-1929.7v-335.7H880.8c-257.1,1.9-387.5,65.2-445.1,216.8c-44.1,113.2-17.3,249.4,61.4,337.7c78.7,86.3,178.4,117,383.7,117h186.1V-1929.7z M6640.3-1929.7v-326.2H5000H3359.6l-5.8,307c-1.9,166.9,0,316.6,3.8,330c7.7,21.1,320.4,24.9,1646.1,21.1l1636.5-5.8V-1929.7z M9383.9-1630.4c130.4-59.5,201.4-165,201.4-299.3s-71-239.8-201.4-299.3c-57.6-26.8-122.8-36.4-262.9-36.4h-188v335.7v335.7h188C9261.1-1594,9326.3-1603.6,9383.9-1630.4z"/></g></g>
</svg>