<svg width="45" height="45" viewBox="0 0 45 45" fill="none" xmlns="http://www.w3.org/2000/svg">
<g clip-path="url(#clip0_126_278)">
<rect y="0.75" width="44.3365" height="43.5" rx="12.6413" fill="white"/>
<path d="M17.4017 30.192C16.2337 30.192 15.2417 30.128 14.4257 30C13.6097 29.856 12.9377 29.608 12.4097 29.256C11.8977 28.904 11.4897 28.416 11.1857 27.792C10.8977 27.152 10.6897 26.344 10.5617 25.368C10.4497 24.376 10.3937 23.168 10.3937 21.744C10.3937 20.32 10.4497 19.12 10.5617 18.144C10.6897 17.152 10.9057 16.344 11.2097 15.72C11.5137 15.08 11.9297 14.584 12.4577 14.232C12.9857 13.88 13.6497 13.64 14.4497 13.512C15.2657 13.368 16.2497 13.296 17.4017 13.296C17.9457 13.296 18.5297 13.32 19.1537 13.368C19.7777 13.416 20.3857 13.472 20.9777 13.536C21.5857 13.6 22.1297 13.68 22.6097 13.776V15.456C22.0977 15.376 21.5777 15.312 21.0497 15.264C20.5217 15.2 20.0257 15.152 19.5617 15.12C19.1137 15.088 18.7297 15.072 18.4097 15.072C17.4177 15.072 16.5697 15.096 15.8657 15.144C15.1777 15.192 14.6097 15.32 14.1617 15.528C13.7137 15.736 13.3697 16.08 13.1297 16.56C12.8897 17.024 12.7137 17.672 12.6017 18.504C12.5057 19.336 12.4577 20.416 12.4577 21.744C12.4577 22.912 12.4897 23.896 12.5537 24.696C12.6177 25.48 12.7457 26.12 12.9377 26.616C13.1457 27.112 13.4257 27.496 13.7777 27.768C14.1457 28.04 14.6257 28.224 15.2177 28.32C15.8257 28.4 16.5697 28.44 17.4497 28.44C17.7857 28.44 18.1537 28.432 18.5537 28.416C18.9537 28.4 19.3457 28.376 19.7297 28.344C20.1137 28.312 20.4337 28.28 20.6897 28.248V22.872H16.9457V21.12H22.6817V29.712C22.1537 29.808 21.5697 29.896 20.9297 29.976C20.3057 30.04 19.6817 30.088 19.0577 30.12C18.4497 30.168 17.8977 30.192 17.4017 30.192Z" fill="#802642"/>
<path d="M25.8337 30V23.688L19.8577 13.488H22.0657L26.8417 21.624H27.0097L31.7377 13.488H33.8977L27.8977 23.688V30H25.8337Z" fill="#802642"/>
</g>
<defs>
<clipPath id="clip0_126_278">
<rect y="0.75" width="44.3365" height="43.5" rx="12.6413" fill="white"/>
</clipPath>
</defs>
</svg>
