<svg width="24" height="24" viewBox="0 0 24 24" fill="none" xmlns="http://www.w3.org/2000/svg">
<path d="M0.296875 23.3142C0.296875 23.4907 0.367003 23.66 0.491832 23.7848C0.616661 23.9097 0.785965 23.9798 0.9625 23.9798H13.2073C13.3839 23.9798 13.5532 23.9097 13.678 23.7848C13.8028 23.66 13.873 23.4907 13.873 23.3142V21.2015C13.873 20.192 13.0516 19.371 12.0425 19.371H11.7546V17.2769C11.7546 17.1004 11.6845 16.9311 11.5597 16.8063C11.4348 16.6814 11.2655 16.6113 11.089 16.6113H3.08052C2.90398 16.6113 2.73468 16.6814 2.60985 16.8063C2.48502 16.9311 2.41489 17.1004 2.41489 17.2769V19.371H2.12734C1.64204 19.3715 1.17676 19.5645 0.833591 19.9077C0.490426 20.2509 0.297404 20.7162 0.296875 21.2015V23.3142V23.3142ZM3.74614 17.9426H10.4234V19.371H3.74614V17.9426V17.9426ZM1.62813 21.2015C1.62813 20.9262 1.85211 20.7022 2.12734 20.7022H12.0425C12.3177 20.7022 12.5417 20.9262 12.5417 21.2015V22.6485H1.62813V21.2015V21.2015ZM21.6511 18.5889C21.9201 18.5762 22.1838 18.5102 22.4271 18.3948C22.6703 18.2794 22.8883 18.1169 23.0682 17.9166C23.4087 17.5401 23.5976 17.0507 23.5984 16.5431C23.598 16.2568 23.5378 15.9737 23.4219 15.7119C23.3059 15.4502 23.1366 15.2155 22.9248 15.0228L16.4053 9.17163L18.6951 6.63726C18.91 6.39855 19.0215 6.08437 19.0052 5.76358C18.9888 5.44279 18.846 5.14156 18.6079 4.92594L14.1935 0.938179C14.076 0.830487 13.9381 0.747458 13.788 0.694007C13.6379 0.640556 13.4786 0.617771 13.3195 0.626999C13.1605 0.634599 13.0046 0.673663 12.8608 0.741931C12.717 0.810199 12.5882 0.906314 12.4818 1.02471L5.08072 9.21789C4.97362 9.33574 4.89097 9.47367 4.83756 9.62369C4.78414 9.77371 4.76103 9.93284 4.76954 10.0919C4.78618 10.415 4.9273 10.7125 5.16725 10.9295L9.58201 14.9173C9.69982 15.0245 9.83775 15.1072 9.98778 15.1606C10.1378 15.214 10.297 15.2371 10.456 15.2285C10.6149 15.2208 10.7708 15.1817 10.9145 15.1133C11.0583 15.045 11.187 14.9489 11.2933 14.8304L13.6603 12.2105L20.1761 18.0614C20.3748 18.2425 20.6075 18.3825 20.8607 18.473C21.1139 18.5636 21.3826 18.6029 21.6511 18.5889V18.5889ZM13.1211 10.821C13.1195 10.8234 13.1171 10.8244 13.1155 10.8264C13.1138 10.8284 13.1128 10.8307 13.1112 10.8324L10.3858 13.8493L6.14872 10.022L13.3897 2.00584L17.6268 5.83319L13.1211 10.8217V10.821ZM14.5526 11.2224L15.5131 10.1594L22.0319 16.0103C22.1813 16.1464 22.2672 16.3404 22.2672 16.5431C22.2662 16.7269 22.1951 16.9035 22.0684 17.0367C21.9416 17.1699 21.7688 17.2496 21.5852 17.2596C21.3949 17.268 21.2089 17.2009 21.0677 17.0729L14.5526 11.2224V11.2224Z" fill="#A2A3A4"/>
</svg>
