<svg width="27" height="24" viewBox="0 0 27 24" fill="none" xmlns="http://www.w3.org/2000/svg">
<path d="M1.38745 11.1863C1.70339 11.9918 2.16181 12.8409 2.75795 13.7102C3.7033 15.0868 5.01745 16.5424 6.67182 18.0341L6.6719 18.0342C8.04218 19.2702 9.40881 20.3176 10.4488 21.0654C10.9682 21.4389 11.4046 21.7366 11.7173 21.9445C11.8737 22.0485 11.9988 22.1299 12.0878 22.187C12.1323 22.2155 12.1675 22.2378 12.1928 22.2538L12.2226 22.2724C12.2297 22.2768 12.2325 22.2785 12.2323 22.2784L12.2439 22.2854L12.2438 22.2855L12.9557 22.7314C12.9558 22.7315 12.9559 22.7315 12.956 22.7316C13.029 22.7769 13.1271 22.777 13.2002 22.7317C13.2003 22.7316 13.2004 22.7315 13.2006 22.7314L13.9124 22.2855L13.9125 22.2854C14.0152 22.2211 16.7359 20.5106 19.4846 18.0339C21.1387 16.5424 22.4527 15.087 23.398 13.7105C23.9953 12.8397 24.4559 11.9912 24.7681 11.188L24.7688 11.1863C25.1455 10.2242 25.3281 9.29685 25.3281 8.4232V8.42102C25.3308 7.48967 25.1394 6.58507 24.7628 5.73026L1.38745 11.1863ZM1.38745 11.1863C1.01075 10.2242 0.828125 9.29685 0.828125 8.4232C0.828125 7.49036 1.01984 6.58504 1.39645 5.73024L1.38745 11.1863ZM23.2185 3.53614L23.2179 3.53556C22.5593 2.90498 21.7819 2.40301 20.9275 2.05774L20.9266 2.05735C20.0403 1.69776 19.0891 1.51348 18.1284 1.51564L18.1267 1.51565C16.7766 1.51565 15.4619 1.87673 14.3213 2.55637L14.3212 2.55638C14.0484 2.71895 13.7898 2.89709 13.5453 3.0908L13.0796 3.45977L12.6139 3.0908C12.3694 2.89709 12.1108 2.71895 11.838 2.55638L11.838 2.55637C10.6974 1.87673 9.3826 1.51565 8.03251 1.51565C7.05913 1.51565 6.1197 1.69746 5.23264 2.05736L5.23184 2.05768C4.3743 2.40445 3.60324 2.90232 2.94105 3.53578L2.94002 3.53677C2.28268 4.16321 1.75856 4.90859 1.39648 5.73018L23.2185 3.53614ZM23.2185 3.53614C23.8752 4.16348 24.3995 4.90888 24.7627 5.73018L23.2185 3.53614Z" stroke="#A2A3A4" stroke-width="1.5"/>
</svg>
