<svg width="27" height="27" viewBox="0 0 27 27" fill="none" xmlns="http://www.w3.org/2000/svg">
<g clip-path="url(#clip0_1_957)">
<path d="M15.3463 7.50521C16.9801 7.50521 18.3046 6.18072 18.3046 4.54688C18.3046 2.91304 16.9801 1.58855 15.3463 1.58855C13.7124 1.58855 12.3879 2.91304 12.3879 4.54688C12.3879 6.18072 13.7124 7.50521 15.3463 7.50521Z" fill="#B3B3B3"/>
<path d="M18.3712 19.5087C18.2895 19.4537 18.1976 19.4156 18.101 19.3966C18.0043 19.3776 17.9049 19.3781 17.8084 19.3981C17.712 19.4181 17.6205 19.4571 17.5393 19.5129C17.4582 19.5688 17.389 19.6402 17.3358 19.7231C16.6209 20.782 15.745 21.7227 14.7399 22.5114C14.4958 22.6963 13.5861 23.3989 13.2015 23.2509C12.9353 23.1696 13.0906 22.6445 13.1424 22.4226L13.5344 21.2615C13.6971 20.7881 16.5297 12.3865 16.8403 11.425C17.2988 10.0198 17.0992 8.63678 15.0061 8.96959C14.4367 9.02876 8.6605 9.77574 8.55696 9.78314C8.45984 9.78945 8.36491 9.81483 8.2776 9.85783C8.19028 9.90083 8.11229 9.96061 8.04808 10.0337C7.98387 10.1069 7.93469 10.192 7.90335 10.2841C7.87202 10.3763 7.85914 10.4737 7.86545 10.5708C7.87177 10.6679 7.89715 10.7628 7.94015 10.8502C7.98315 10.9375 8.04292 11.0155 8.11606 11.0797C8.1892 11.1439 8.27428 11.1931 8.36642 11.2244C8.45857 11.2557 8.55598 11.2686 8.65311 11.2623C8.65311 11.2623 10.8719 10.9739 11.1159 10.9517C11.2409 10.9395 11.3668 10.9637 11.4784 11.0214C11.5899 11.0792 11.6824 11.168 11.7446 11.2771C11.8786 11.6914 11.8602 12.1399 11.6928 12.5418C11.5005 13.2814 8.46082 21.8457 8.36467 22.3413C8.26155 22.7559 8.29018 23.1924 8.44658 23.59C8.60299 23.9877 8.87939 24.3267 9.23738 24.56C9.9093 25.0078 10.7093 25.2234 11.5153 25.1739C12.2989 25.1643 13.0739 25.0088 13.8006 24.7153C15.6422 23.9757 17.5651 22.0084 18.5783 20.4627C18.6656 20.3057 18.6927 20.1222 18.6546 19.9467C18.6165 19.7711 18.5157 19.6154 18.3712 19.5087V19.5087Z" fill="#B3B3B3"/>
</g>
<defs>
<clipPath id="clip0_1_957">
<rect y="0.109375" width="26.625" height="26.625" rx="13.3125" fill="white"/>
</clipPath>
</defs>
</svg>
