<svg width="19" height="22" viewBox="0 0 19 22" fill="none" xmlns="http://www.w3.org/2000/svg">
<path d="M0.621922 8.95622L8.38755 1.19059C8.59559 0.982618 8.87771 0.865784 9.17188 0.865784C9.46604 0.865784 9.74816 0.982618 9.9562 1.19059L17.7218 8.95622C17.9299 9.16422 18.0468 9.44635 18.0469 9.74055V20.375C18.0469 20.6692 17.93 20.9514 17.7219 21.1595C17.5139 21.3675 17.2317 21.4844 16.9375 21.4844H11.3906V13.7188H6.95312V21.4844H1.40625C1.11203 21.4844 0.829852 21.3675 0.621804 21.1595C0.413755 20.9514 0.296875 20.6692 0.296875 20.375V9.74055C0.296938 9.44635 0.41386 9.16422 0.621922 8.95622V8.95622Z" fill="white"/>
</svg>
