<svg width="114" height="75" viewBox="0 0 114 75" fill="none" xmlns="http://www.w3.org/2000/svg">
<path d="M32.1 65.2C31.0867 65.2 30.14 65.0133 29.26 64.64C28.38 64.2667 27.6067 63.7533 26.94 63.1C26.2733 62.4333 25.7467 61.6667 25.36 60.8C24.9867 59.9333 24.8 59 24.8 58C24.8 57 24.9867 56.0667 25.36 55.2C25.7467 54.3333 26.2733 53.5733 26.94 52.92C27.6067 52.2533 28.38 51.7333 29.26 51.36C30.14 50.9867 31.0867 50.8 32.1 50.8C32.7267 50.8 33.3333 50.8667 33.92 51C34.5067 51.1333 35.0467 51.3333 35.54 51.6C35.74 51.7067 35.8867 51.8533 35.98 52.04C36.0867 52.2133 36.14 52.3933 36.14 52.58C36.14 52.9 36.0333 53.1867 35.82 53.44C35.6067 53.6933 35.3333 53.82 35 53.82C34.8933 53.82 34.78 53.8067 34.66 53.78C34.5533 53.7533 34.4467 53.7133 34.34 53.66C34.0067 53.5133 33.6533 53.4 33.28 53.32C32.9067 53.24 32.5133 53.2 32.1 53.2C31.2333 53.2 30.44 53.42 29.72 53.86C29.0133 54.2867 28.4467 54.8667 28.02 55.6C27.6067 56.32 27.4 57.12 27.4 58C27.4 58.8667 27.6067 59.6667 28.02 60.4C28.4467 61.1333 29.0133 61.72 29.72 62.16C30.44 62.5867 31.2333 62.8 32.1 62.8C32.5 62.8 32.94 62.76 33.42 62.68C33.9 62.6 34.2933 62.4933 34.6 62.36L34.42 62.96V59.54L34.76 59.84H32.54C32.1933 59.84 31.9 59.7267 31.66 59.5C31.4333 59.2733 31.32 58.9867 31.32 58.64C31.32 58.2933 31.4333 58.0067 31.66 57.78C31.9 57.5533 32.1933 57.44 32.54 57.44H35.82C36.1667 57.44 36.4533 57.56 36.68 57.8C36.9067 58.0267 37.02 58.3133 37.02 58.66V62.9C37.02 63.1667 36.9533 63.3867 36.82 63.56C36.7 63.7333 36.56 63.8733 36.4 63.98C35.7867 64.3533 35.1133 64.6533 34.38 64.88C33.66 65.0933 32.9 65.2 32.1 65.2ZM47.8575 50.94C48.1642 50.94 48.4375 51.06 48.6775 51.3C48.9308 51.5267 49.0575 51.82 49.0575 52.18C49.0575 52.3 49.0375 52.4267 48.9975 52.56C48.9708 52.68 48.9175 52.8 48.8375 52.92L44.2975 59.42L44.6575 58.04V63.78C44.6575 64.1267 44.5375 64.42 44.2975 64.66C44.0708 64.8867 43.8042 65 43.4975 65C43.1642 65 42.8775 64.8867 42.6375 64.66C42.4108 64.42 42.2975 64.1267 42.2975 63.78V58.2L42.4575 58.84L38.1375 53.1C38.0042 52.9267 37.9108 52.76 37.8575 52.6C37.8042 52.44 37.7775 52.2933 37.7775 52.16C37.7775 51.8 37.9175 51.5067 38.1975 51.28C38.4775 51.0533 38.7642 50.94 39.0575 50.94C39.4308 50.94 39.7575 51.1267 40.0375 51.5L43.8775 56.8L43.3175 56.72L46.8575 51.54C47.1375 51.14 47.4708 50.94 47.8575 50.94ZM52.1116 50.98C52.2982 50.98 52.4916 51.0333 52.6916 51.14C52.9049 51.2333 53.0649 51.36 53.1716 51.52L58.0316 59L57.0316 58.96L62.0116 51.52C62.2649 51.16 62.5916 50.98 62.9916 50.98C63.3116 50.98 63.5982 51.0933 63.8516 51.32C64.1049 51.5467 64.2316 51.84 64.2316 52.2V63.78C64.2316 64.1267 64.1182 64.42 63.8916 64.66C63.6649 64.8867 63.3649 65 62.9916 65C62.6182 65 62.3116 64.8867 62.0716 64.66C61.8449 64.42 61.7316 64.1267 61.7316 63.78V54.36L62.5116 54.54L58.4316 60.76C58.3116 60.9067 58.1582 61.0333 57.9716 61.14C57.7982 61.2467 57.6182 61.2933 57.4316 61.28C57.2582 61.2933 57.0782 61.2467 56.8916 61.14C56.7182 61.0333 56.5716 60.9067 56.4516 60.76L52.6316 54.72L53.1516 53.66V63.78C53.1516 64.1267 53.0449 64.42 52.8316 64.66C52.6182 64.8867 52.3382 65 51.9916 65C51.6582 65 51.3849 64.8867 51.1716 64.66C50.9582 64.42 50.8516 64.1267 50.8516 63.78V52.2C50.8516 51.8667 50.9716 51.58 51.2116 51.34C51.4649 51.1 51.7649 50.98 52.1116 50.98ZM68.4983 65C68.1249 65 67.8183 64.8867 67.5783 64.66C67.3516 64.42 67.2383 64.1267 67.2383 63.78V52.22C67.2383 51.8733 67.3516 51.5867 67.5783 51.36C67.8183 51.12 68.1116 51 68.4583 51H74.9583C75.3049 51 75.5916 51.1133 75.8183 51.34C76.0583 51.5533 76.1783 51.8333 76.1783 52.18C76.1783 52.4733 76.0583 52.7333 75.8183 52.96C75.5916 53.1867 75.3049 53.3 74.9583 53.3H69.5583L69.7383 53.06V57.08L69.5983 56.82H74.0583C74.4049 56.82 74.6916 56.9333 74.9183 57.16C75.1583 57.3733 75.2783 57.6533 75.2783 58C75.2783 58.2933 75.1583 58.5533 74.9183 58.78C74.6916 59.0067 74.4049 59.12 74.0583 59.12H69.5583L69.7383 58.94V63.78C69.7383 64.1267 69.6116 64.42 69.3583 64.66C69.1183 64.8867 68.8316 65 68.4983 65ZM87.3888 50.94C87.6954 50.94 87.9688 51.06 88.2088 51.3C88.4621 51.5267 88.5888 51.82 88.5888 52.18C88.5888 52.3 88.5688 52.4267 88.5288 52.56C88.5021 52.68 88.4488 52.8 88.3688 52.92L83.8288 59.42L84.1888 58.04V63.78C84.1888 64.1267 84.0688 64.42 83.8288 64.66C83.6021 64.8867 83.3354 65 83.0288 65C82.6954 65 82.4088 64.8867 82.1688 64.66C81.9421 64.42 81.8288 64.1267 81.8288 63.78V58.2L81.9888 58.84L77.6688 53.1C77.5354 52.9267 77.4421 52.76 77.3888 52.6C77.3354 52.44 77.3088 52.2933 77.3088 52.16C77.3088 51.8 77.4488 51.5067 77.7288 51.28C78.0088 51.0533 78.2954 50.94 78.5888 50.94C78.9621 50.94 79.2888 51.1267 79.5688 51.5L83.4088 56.8L82.8487 56.72L86.3888 51.54C86.6688 51.14 87.0021 50.94 87.3888 50.94Z" fill="white"/>
<path fill-rule="evenodd" clip-rule="evenodd" d="M88.885 8.86889C88.0699 8.86889 87.2975 9.05644 86.6081 9.39083C86.4363 6.62475 84.1472 4.42717 81.3568 4.42717C80.5401 4.42717 79.7664 4.61533 79.0761 4.95092C78.8801 2.20837 76.6022 0.0367432 73.8285 0.0367432C70.9267 0.0367432 68.5658 2.41313 68.5658 5.33418V14.1151C68.5658 14.9482 69.2368 15.6236 70.0645 15.6236C70.8921 15.6236 71.5631 14.9482 71.5631 14.1151V5.33418C71.5631 4.0767 72.5794 3.05374 73.8285 3.05374C75.0778 3.05374 76.0941 4.0767 76.0941 5.33418V29.4964V33.8868C76.0941 35.1443 75.0778 36.1672 73.8285 36.1672C72.5794 36.1672 71.5631 35.1443 71.5631 33.8868V25.1058C71.5631 24.2727 70.8921 23.5973 70.0645 23.5973H49.8515C49.0239 23.5973 48.3529 24.2727 48.3529 25.1058C48.3529 25.9389 49.0239 26.6143 49.8515 26.6143H68.5658V33.8868C68.5658 36.8078 70.9267 39.1842 73.8285 39.1842C76.6023 39.1842 78.8802 37.0126 79.0761 34.27C79.7664 34.6056 80.5401 34.7938 81.3568 34.7938C84.1472 34.7938 86.4363 32.596 86.6081 29.8301C87.2975 30.1645 88.0699 30.3521 88.885 30.3521C91.7869 30.3521 94.1478 27.9757 94.1478 25.0547V14.1661C94.1478 11.2452 91.7869 8.86889 88.885 8.86889ZM83.6224 29.4964C83.6224 30.7538 82.6061 31.7768 81.3569 31.7768C80.1076 31.7768 79.0913 30.7538 79.0913 29.4964V9.72461C79.0913 8.46712 80.1076 7.44416 81.3569 7.44416C82.6061 7.44416 83.6224 8.46712 83.6224 9.72461V29.4964ZM88.885 27.3351C90.1342 27.3351 91.1506 26.3121 91.1506 25.0547V14.1661C91.1506 12.9088 90.1342 11.8859 88.885 11.8859C87.6359 11.8859 86.6196 12.9088 86.6196 14.1661V25.0547C86.6196 26.3121 87.6359 27.3351 88.885 27.3351Z" fill="white"/>
<path fill-rule="evenodd" clip-rule="evenodd" d="M43.9842 23.5973C43.1566 23.5973 42.4856 24.2727 42.4856 25.1058V33.8868C42.4856 35.1443 41.4693 36.1672 40.22 36.1672C38.9708 36.1672 37.9545 35.1443 37.9545 33.8868V29.4964V9.72461V5.33418C37.9545 4.0767 38.9708 3.05374 40.22 3.05374C41.4693 3.05374 42.4856 4.0767 42.4856 5.33418V14.1151C42.4856 14.9482 43.1566 15.6236 43.9842 15.6236H64.1972C65.0249 15.6236 65.6959 14.9482 65.6959 14.1151C65.6959 13.282 65.0249 12.6066 64.1972 12.6066H45.4829V5.33418C45.4829 2.41313 43.122 0.0367432 40.22 0.0367432C37.4463 0.0367432 35.1684 2.20837 34.9725 4.95092C34.2821 4.61533 33.5084 4.42717 32.6917 4.42717C29.9012 4.42717 27.6122 6.62495 27.4404 9.39083C26.751 9.05644 25.9786 8.86889 25.1634 8.86889C22.2615 8.86889 19.9006 11.2453 19.9006 14.1663V25.0547C19.9006 27.9757 22.2615 30.352 25.1634 30.352C25.9786 30.352 26.751 30.1644 27.4404 29.83C27.6122 32.5961 29.9012 34.7937 32.6917 34.7937C33.5084 34.7937 34.282 34.6055 34.9725 34.2699C35.1684 37.0125 37.4463 39.1841 40.22 39.1841C43.122 39.1841 45.4829 36.8077 45.4829 33.8867V25.1057C45.4829 24.2726 44.812 23.5973 43.9842 23.5973ZM25.1636 27.3351C23.9145 27.3351 22.8981 26.3121 22.8981 25.0548V14.1663C22.8981 12.9088 23.9144 11.8859 25.1636 11.8859C26.4128 11.8859 27.4291 12.9088 27.4291 14.1663V25.0547C27.429 26.3121 26.4127 27.3351 25.1636 27.3351ZM30.4263 29.4964C30.4263 30.7538 31.4426 31.7768 32.6918 31.7768C33.9411 31.7768 34.9573 30.7538 34.9573 29.4964V9.72461C34.9573 8.46712 33.9411 7.44416 32.6918 7.44416C31.4425 7.44416 30.4263 8.46712 30.4263 9.72461V29.4964Z" fill="white"/>
<path d="M42.4813 19.6986V20.2043C42.4813 21.0374 43.1523 21.7128 43.98 21.7128C44.8076 21.7128 45.4786 21.0374 45.4786 20.2043V19.6986C45.4786 18.8655 44.8076 18.1901 43.98 18.1901C43.1523 18.1901 42.4813 18.8655 42.4813 19.6986Z" fill="white"/>
<path d="M71.5632 19.5308V19.0251C71.5632 18.192 70.8921 17.5166 70.0646 17.5166C69.2368 17.5166 68.5659 18.192 68.5659 19.0251V19.5308C68.5659 20.3639 69.2368 21.0393 70.0646 21.0393C70.8922 21.0393 71.5632 20.3639 71.5632 19.5308Z" fill="white"/>
</svg>
