<svg width="120" height="47" viewBox="0 0 120 47" fill="none" xmlns="http://www.w3.org/2000/svg">
<path fill-rule="evenodd" clip-rule="evenodd" d="M111.101 10.5986C109.788 10.5986 108.544 10.8236 107.434 11.2249C107.157 7.9056 103.471 5.26851 98.9768 5.26851C97.6616 5.26851 96.4155 5.4943 95.3037 5.89701C94.9881 2.60596 91.3195 0 86.8524 0C82.1789 0 78.3767 2.85166 78.3767 6.35692V16.8941C78.3767 17.8938 79.4573 18.7043 80.7903 18.7043C82.1232 18.7043 83.2039 17.8938 83.2039 16.8941V6.35692C83.2039 4.84794 84.8406 3.62039 86.8524 3.62039C88.8644 3.62039 90.5011 4.84794 90.5011 6.35692V35.3515V40.6201C90.5011 42.129 88.8644 43.3566 86.8524 43.3566C84.8406 43.3566 83.2039 42.129 83.2039 40.6201V30.0829C83.2039 29.0832 82.1232 28.2727 80.7903 28.2727H48.2368C46.9039 28.2727 45.8232 29.0832 45.8232 30.0829C45.8232 31.0826 46.9039 31.8931 48.2368 31.8931H78.3767V40.6201C78.3767 44.1253 82.1789 46.977 86.8524 46.977C91.3196 46.977 94.9883 44.371 95.3037 41.08C96.4155 41.4827 97.6616 41.7085 98.9768 41.7085C103.471 41.7085 107.157 39.0711 107.434 35.7521C108.544 36.1533 109.788 36.3784 111.101 36.3784C115.775 36.3784 119.577 33.5267 119.577 30.0216V16.9553C119.577 13.4501 115.775 10.5986 111.101 10.5986ZM102.626 35.3515C102.626 36.8605 100.989 38.0881 98.977 38.0881C96.965 38.0881 95.3283 36.8605 95.3283 35.3515V11.6254C95.3283 10.1165 96.965 8.8889 98.977 8.8889C100.989 8.8889 102.626 10.1165 102.626 11.6254V35.3515ZM111.101 32.758C113.113 32.758 114.75 31.5305 114.75 30.0216V16.9553C114.75 15.4465 113.113 14.219 111.101 14.219C109.089 14.219 107.453 15.4465 107.453 16.9553V30.0216C107.453 31.5305 109.089 32.758 111.101 32.758Z" fill="white"/>
<path fill-rule="evenodd" clip-rule="evenodd" d="M38.7873 28.2727C37.4543 28.2727 36.3737 29.0832 36.3737 30.0829V40.6201C36.3737 42.129 34.7369 43.3566 32.7249 43.3566C30.713 43.3566 29.0762 42.129 29.0762 40.6201V35.3515V11.6254V6.35692C29.0762 4.84794 30.713 3.62039 32.7249 3.62039C34.7369 3.62039 36.3737 4.84794 36.3737 6.35692V16.8941C36.3737 17.8938 37.4543 18.7043 38.7873 18.7043H71.3408C72.6738 18.7043 73.7544 17.8938 73.7544 16.8941C73.7544 15.8944 72.6738 15.0839 71.3408 15.0839H41.2008V6.35692C41.2008 2.85166 37.3986 0 32.7249 0C28.2577 0 24.5892 2.60596 24.2737 5.89701C23.1618 5.4943 21.9156 5.26851 20.6003 5.26851C16.1062 5.26851 12.4197 7.90585 12.143 11.2249C11.0327 10.8236 9.78873 10.5986 8.4759 10.5986C3.80221 10.5986 0 13.4502 0 16.9555V30.0216C0 33.5267 3.80221 36.3783 8.4759 36.3783C9.78873 36.3783 11.0327 36.1532 12.143 35.752C12.4197 39.0713 16.1062 41.7083 20.6003 41.7083C21.9156 41.7083 23.1616 41.4826 24.2737 41.0798C24.5892 44.3709 28.2577 46.9769 32.7249 46.9769C37.3986 46.9769 41.2008 44.1252 41.2008 40.6199V30.0828C41.2008 29.0831 40.1204 28.2727 38.7873 28.2727ZM8.47622 32.758C6.46441 32.758 4.82751 31.5305 4.82751 30.0217V16.9555C4.82751 15.4465 6.46425 14.219 8.47622 14.219C10.488 14.219 12.1248 15.4465 12.1248 16.9555V30.0216C12.1246 31.5305 10.4879 32.758 8.47622 32.758ZM16.9518 35.3515C16.9518 36.8605 18.5887 38.0881 20.6005 38.0881C22.6125 38.0881 24.2492 36.8605 24.2492 35.3515V11.6254C24.2492 10.1165 22.6125 8.8889 20.6005 8.8889C18.5885 8.8889 16.9518 10.1165 16.9518 11.6254V35.3515Z" fill="white"/>
<path d="M36.3667 23.5943V24.2012C36.3667 25.2009 37.4473 26.0113 38.7803 26.0113C40.1132 26.0113 41.1939 25.2009 41.1939 24.2012V23.5943C41.1939 22.5945 40.1132 21.7841 38.7803 21.7841C37.4473 21.7841 36.3667 22.5945 36.3667 23.5943Z" fill="white"/>
<path d="M83.204 23.3929V22.786C83.204 21.7863 82.1232 20.9758 80.7904 20.9758C79.4573 20.9758 78.3768 21.7863 78.3768 22.786V23.3929C78.3768 24.3926 79.4573 25.2031 80.7904 25.2031C82.1234 25.2031 83.204 24.3926 83.204 23.3929Z" fill="white"/>
</svg>
