<svg width="21" height="21" viewBox="0 0 21 21" fill="none" xmlns="http://www.w3.org/2000/svg">
<path d="M20.0942 8.74488L20.089 8.72408L17.1717 1.3112C17.0417 0.892584 16.6542 0.603973 16.2148 0.603973H4.38959C3.94757 0.603973 3.55496 0.897785 3.43015 1.3216L0.702649 8.65908L0.694849 8.67728L0.689648 8.69808C0.655847 8.82548 0.645446 8.95549 0.663647 9.08289C0.661047 9.12449 0.658447 9.16609 0.658447 9.2077V18.7215C0.659135 19.1405 0.82591 19.5422 1.12223 19.8385C1.41855 20.1348 1.82025 20.3016 2.23931 20.3023H18.5471C19.4182 20.3023 20.128 19.5925 20.1306 18.7215V9.2077C20.1306 9.1739 20.1306 9.14009 20.128 9.11149C20.1384 8.98409 20.128 8.86188 20.0942 8.74488ZM12.4031 7.62684L12.3953 8.03505C12.3745 9.2025 11.5685 9.98773 10.3906 9.98773C9.81599 9.98773 9.32197 9.80312 8.96576 9.4521C8.60955 9.10109 8.41454 8.61227 8.40414 8.03505L8.39634 7.62684H3.04534L5.11241 2.60085H15.492L17.6163 7.62684H12.4031ZM2.65272 9.62371H6.74268C7.3745 11.1084 8.71875 11.9846 10.3932 11.9846C11.2694 11.9846 12.0833 11.7402 12.7411 11.2774C13.3183 10.8718 13.7681 10.3049 14.0594 9.62371H18.1285V18.3054H2.65272V9.62371Z" fill="#A2A3A4"/>
</svg>
