<svg width="27" height="27" viewBox="0 0 27 27" fill="none" xmlns="http://www.w3.org/2000/svg">
<path d="M22.9149 7.72395C22.7277 7.39962 22.4596 7.12935 22.1369 6.93948C21.8141 6.74962 21.4476 6.64665 21.0732 6.64062H7.20654L6.57821 4.19229C6.51472 3.95594 6.37309 3.74806 6.17637 3.60249C5.97966 3.45692 5.73945 3.38224 5.49487 3.39062H3.32821C3.04089 3.39062 2.76534 3.50476 2.56217 3.70792C2.35901 3.91108 2.24487 4.18664 2.24487 4.47395C2.24487 4.76127 2.35901 5.03682 2.56217 5.23999C2.76534 5.44315 3.04089 5.55729 3.32821 5.55729H4.67154L7.66154 16.6723C7.72502 16.9086 7.86666 17.1165 8.06337 17.2621C8.26009 17.4077 8.5003 17.4823 8.74487 17.474H18.4949C18.6949 17.4733 18.8909 17.4174 19.0611 17.3122C19.2313 17.207 19.369 17.0568 19.459 16.8781L23.0124 9.77145C23.1664 9.44864 23.2381 9.09271 23.2211 8.73544C23.2041 8.37817 23.0989 8.03067 22.9149 7.72395ZM17.8232 15.3073H9.56821L7.80237 8.80729H21.0732L17.8232 15.3073Z" fill="#A2A3A4"/>
<path d="M8.20312 22.8906C9.10059 22.8906 9.82812 22.1631 9.82812 21.2656C9.82812 20.3681 9.10059 19.6406 8.20312 19.6406C7.30566 19.6406 6.57812 20.3681 6.57812 21.2656C6.57812 22.1631 7.30566 22.8906 8.20312 22.8906Z" fill="#A2A3A4"/>
<path d="M19.0364 22.8906C19.9338 22.8906 20.6614 22.1631 20.6614 21.2656C20.6614 20.3681 19.9338 19.6406 19.0364 19.6406C18.1389 19.6406 17.4114 20.3681 17.4114 21.2656C17.4114 22.1631 18.1389 22.8906 19.0364 22.8906Z" fill="#A2A3A4"/>
</svg>
