<svg width="14" height="14" viewBox="0 0 14 14" fill="none" xmlns="http://www.w3.org/2000/svg">
<path d="M11.2165 10.6491L13.1271 12.5587C13.2162 12.651 13.2655 12.7745 13.2644 12.9028C13.2633 13.031 13.2118 13.1537 13.1211 13.2444C13.0304 13.3351 12.9077 13.3866 12.7795 13.3877C12.6512 13.3888 12.5277 13.3395 12.4354 13.2504L10.5248 11.3398C9.27627 12.4095 7.66193 12.954 6.02054 12.8591C4.37916 12.7643 2.83832 12.0373 1.72134 10.8309C0.604375 9.62442 -0.00189876 8.03224 0.0297436 6.38842C0.0613859 4.74459 0.728484 3.17692 1.89106 2.01435C3.05363 0.851775 4.6213 0.184677 6.26512 0.153035C7.90895 0.121392 9.50113 0.727666 10.7076 1.84464C11.914 2.96161 12.641 4.50245 12.7359 6.14383C12.8307 7.78522 12.2862 9.39956 11.2165 10.6481V10.6491ZM6.38759 11.8915C7.81462 11.8915 9.18321 11.3246 10.1923 10.3156C11.2013 9.3065 11.7682 7.93791 11.7682 6.51088C11.7682 5.08384 11.2013 3.71525 10.1923 2.70619C9.18321 1.69712 7.81462 1.13023 6.38759 1.13023C4.96055 1.13023 3.59196 1.69712 2.5829 2.70619C1.57383 3.71525 1.00694 5.08384 1.00694 6.51088C1.00694 7.93791 1.57383 9.3065 2.5829 10.3156C3.59196 11.3246 4.96055 11.8915 6.38759 11.8915V11.8915Z" fill="#A2A3A4"/>
</svg>
