<svg width="27" height="28" viewBox="0 0 27 28" fill="none" xmlns="http://www.w3.org/2000/svg">
<path d="M12.9796 9.63616C11.8637 9.63616 10.7934 10.0745 10.0043 10.8546C9.21513 11.6348 8.7718 12.693 8.7718 13.7963C8.7718 14.8997 9.21513 15.9578 10.0043 16.738C10.7934 17.5182 11.8637 17.9565 12.9796 17.9565C14.0956 17.9565 15.1659 17.5182 15.955 16.738C16.7442 15.9578 17.1875 14.8997 17.1875 13.7963C17.1875 12.693 16.7442 11.6348 15.955 10.8546C15.1659 10.0745 14.0956 9.63616 12.9796 9.63616ZM10.1744 13.7963C10.1744 13.0608 10.47 12.3553 10.996 11.8352C11.5221 11.3151 12.2356 11.0229 12.9796 11.0229C13.7236 11.0229 14.4372 11.3151 14.9632 11.8352C15.4893 12.3553 15.7849 13.0608 15.7849 13.7963C15.7849 14.5319 15.4893 15.2373 14.9632 15.7574C14.4372 16.2776 13.7236 16.5698 12.9796 16.5698C12.2356 16.5698 11.5221 16.2776 10.996 15.7574C10.47 15.2373 10.1744 14.5319 10.1744 13.7963ZM10.4516 24.595C11.2814 24.7908 12.1308 24.8895 12.9836 24.8895C13.8345 24.8886 14.6824 24.7892 15.51 24.5933C15.7275 24.5415 15.9236 24.4247 16.0716 24.2587C16.2196 24.0928 16.3122 23.8858 16.3369 23.6659L16.5266 21.9624C16.5586 21.6578 16.6996 21.3745 16.9241 21.1635C17.1486 20.9525 17.442 20.8276 17.7513 20.8115C17.9572 20.8026 18.162 20.8409 18.3505 20.9224L19.9254 21.6052C20.0623 21.6661 20.2106 21.698 20.3607 21.699C20.5108 21.6999 20.6595 21.6699 20.7972 21.6108C20.9358 21.5525 21.0598 21.466 21.1619 21.3567C22.3199 20.1227 23.1844 18.6485 23.6922 17.0418C23.7587 16.8287 23.7567 16.6004 23.6863 16.3884C23.616 16.1765 23.4808 15.9914 23.2995 15.8586L21.9003 14.838C21.7336 14.7184 21.598 14.5614 21.5044 14.3799C21.4109 14.1985 21.3621 13.9977 21.3621 13.7941C21.3621 13.5905 21.4109 13.3897 21.5044 13.2083C21.598 13.0268 21.7336 12.8699 21.9003 12.7502L23.295 11.7318C23.4768 11.5988 23.6123 11.4132 23.6826 11.2007C23.753 10.9882 23.7548 10.7594 23.6877 10.5459C23.1797 8.93896 22.3142 7.46495 21.1546 6.23205C21.001 6.0697 20.8002 5.95849 20.5799 5.91378C20.3596 5.86907 20.1307 5.89306 19.9248 5.98244L18.3505 6.66803C18.1878 6.7407 18.0105 6.77897 17.831 6.77897C17.5078 6.77834 17.1963 6.65979 16.9561 6.44606C16.7159 6.23233 16.5639 5.93845 16.5294 5.62078L16.3386 3.92344C16.3142 3.70066 16.22 3.49101 16.0691 3.32381C15.9182 3.15662 15.7182 3.04026 15.497 2.99101C14.6737 2.80927 13.8334 2.71279 12.9897 2.70312C12.1404 2.71282 11.2943 2.80948 10.465 2.99156C10.2442 3.04053 10.0443 3.15652 9.89345 3.32331C9.74256 3.49009 9.64816 3.69934 9.62347 3.92177L9.43271 5.62023C9.39672 5.9384 9.24331 6.23228 9.00183 6.4456C8.7554 6.65258 8.44479 6.77001 8.12155 6.77841C7.94327 6.7783 7.76695 6.74166 7.60371 6.6708L6.03278 5.98521C5.8262 5.89503 5.59633 5.87072 5.37513 5.91565C5.15392 5.96058 4.95237 6.07253 4.79849 6.23593C3.64052 7.46911 2.77601 8.9426 2.26817 10.5486C2.20109 10.7621 2.20285 10.9909 2.27323 11.2033C2.3436 11.4157 2.47909 11.6012 2.6609 11.734L4.05678 12.7524C4.30614 12.9346 4.48236 13.1981 4.55433 13.4963C4.62629 13.7944 4.58937 14.1082 4.45008 14.3821C4.35745 14.5637 4.22292 14.7212 4.05735 14.8419L2.66034 15.862C2.47869 15.9947 2.34329 16.18 2.27292 16.3922C2.20255 16.6044 2.2007 16.833 2.26761 17.0462C2.77455 18.6538 3.63913 20.1287 4.79792 21.3628C4.95101 21.5261 5.15181 21.6382 5.37236 21.6833C5.59291 21.7285 5.82221 21.7045 6.0283 21.6146L7.60932 20.9285C7.77258 20.8575 7.94875 20.8209 8.12716 20.8209H8.13165C8.4536 20.8213 8.76415 20.9388 9.00417 21.1509C9.2442 21.363 9.39692 21.655 9.43328 21.9713L9.62291 23.667C9.64761 23.8872 9.74045 24.0945 9.88876 24.2606C10.0371 24.4267 10.2336 24.5434 10.4516 24.595ZM14.9758 23.2942C13.663 23.5716 12.3053 23.5716 10.9924 23.2942L10.8219 21.8177C10.7477 21.1625 10.4322 20.5572 9.9355 20.1173C9.4388 19.6773 8.7957 19.4336 8.12885 19.4325H8.12324C7.75132 19.431 7.38321 19.5066 7.04266 19.6544L5.67035 20.2496C4.78013 19.2569 4.10089 18.0973 3.67303 16.8399L4.88769 15.9524C5.22999 15.7029 5.50822 15.3773 5.69996 15.002C5.89171 14.6267 5.9916 14.2121 5.9916 13.7916C5.9916 13.3711 5.89171 12.9565 5.69996 12.5812C5.50822 12.2059 5.22999 11.8804 4.88769 11.6308L3.67359 10.7433C4.10226 9.48729 4.78165 8.32914 5.67147 7.33754L7.03593 7.93216C7.37704 8.08173 7.74616 8.15865 8.11931 8.15792H8.12492C8.79335 8.15655 9.43789 7.91198 9.93561 7.47085C10.4333 7.02971 10.7494 6.42289 10.8235 5.76611L10.9919 4.29064C11.6501 4.16024 12.3191 4.09042 12.9903 4.08208C13.6563 4.0904 14.32 4.15973 14.973 4.29009L15.1413 5.765C15.2133 6.42175 15.528 7.02912 16.0249 7.4707C16.5219 7.91228 17.1662 8.15699 17.8344 8.15792C18.2112 8.16673 18.5849 8.08887 18.9262 7.9305L20.2895 7.33643C21.1799 8.32796 21.8595 9.48636 22.2879 10.7428L21.0778 11.6264C20.733 11.8748 20.4525 12.2002 20.2592 12.5762C20.0658 12.9521 19.965 13.3679 19.965 13.7897C19.965 14.2114 20.0658 14.6272 20.2592 15.0031C20.4525 15.3791 20.733 15.7045 21.0778 15.9529L22.2924 16.8404C21.8635 18.0962 21.1844 19.2543 20.2951 20.2462L18.9262 19.6527C18.5364 19.4818 18.1113 19.4044 17.6856 19.4268C17.2598 19.4492 16.8455 19.5709 16.4764 19.7818C16.1072 19.9927 15.7938 20.287 15.5615 20.6405C15.3293 20.994 15.185 21.3968 15.1402 21.816L14.9758 23.2942Z" fill="#B3B3B3"/>
</svg>
