<svg width="27" height="28" viewBox="0 0 27 28" fill="none" xmlns="http://www.w3.org/2000/svg">
<g clip-path="url(#clip0_1_949)">
<rect x="0.0782471" y="0.859375" width="26.625" height="26.625" rx="13.3125" fill="white"/>
<path d="M13.3907 0.859375C20.7434 0.859375 26.7032 6.81921 26.7032 14.1719C26.7032 21.5245 20.7434 27.4844 13.3907 27.4844C6.03809 27.4844 0.0782471 21.5245 0.0782471 14.1719C0.0782471 6.81921 6.03809 0.859375 13.3907 0.859375ZM16.1797 5.48547C15.9767 5.38562 15.7737 5.48547 15.7238 5.68765C15.673 5.73841 15.673 5.78916 15.673 5.88984V6.59706L15.6813 6.68359C15.7248 6.85477 15.83 7.00383 15.9767 7.10211C19.9322 8.51656 21.9607 12.9097 20.4896 16.7978C19.7292 18.9194 18.0559 20.5344 15.9767 21.2924C15.7737 21.3931 15.673 21.5445 15.673 21.7974V22.5047L15.6772 22.5779C15.6851 22.6578 15.7185 22.733 15.7724 22.7925C15.8263 22.852 15.898 22.8925 15.9767 22.9082C16.0275 22.9082 16.129 22.9082 16.1797 22.8583C17.3209 22.5019 18.3803 21.9233 19.297 21.1558C20.2136 20.3883 20.9694 19.4471 21.5208 18.3863C22.0722 17.3255 22.4083 16.1661 22.5098 14.9748C22.6113 13.7836 22.4761 12.5841 22.1121 11.4453C21.2002 8.56648 18.9687 6.39488 16.1797 5.4863V5.48547ZM10.8048 5.43555C10.754 5.43555 10.6525 5.43555 10.6018 5.48547C9.46059 5.84185 8.40117 6.42045 7.48451 7.18795C6.56785 7.95545 5.81207 8.8967 5.26067 9.95749C4.70928 11.0183 4.37317 12.1777 4.27169 13.3689C4.17021 14.5601 4.30538 15.7597 4.6694 16.8984C5.5813 19.7273 7.76206 21.8989 10.6018 22.8075C10.8048 22.9082 11.0078 22.8075 11.0577 22.6053C11.1085 22.5554 11.1085 22.5038 11.1085 22.4032V21.6959L11.1002 21.6294C11.0652 21.4888 10.9346 21.3282 10.8048 21.2416C6.84932 19.8272 4.82083 15.4341 6.29186 11.546C7.05233 9.4243 8.72555 7.80933 10.8048 7.05135C11.0078 6.95068 11.1085 6.79925 11.1085 6.54631V5.83908L11.1043 5.76586C11.0964 5.68597 11.063 5.61073 11.0091 5.55125C10.9552 5.49178 10.8835 5.45121 10.8048 5.43555V5.43555ZM13.746 8.06144H12.9847L12.9115 8.06809C12.7451 8.10137 12.6236 8.24448 12.5787 8.4658V9.62732L12.4065 9.65395C10.9853 9.90688 10.0951 10.8878 10.0951 12.1018C10.0951 13.7675 11.1085 14.424 13.2385 14.6769C14.6588 14.929 15.1147 15.2327 15.1147 16.0406C15.1147 16.8477 14.405 17.4035 13.4415 17.4035C12.1227 17.4035 11.6668 16.8485 11.5145 16.0905C11.4646 15.8892 11.3115 15.7877 11.1592 15.7877H10.2973L10.2315 15.7935C10.1495 15.8068 10.075 15.8493 10.0219 15.9132C9.96885 15.9772 9.94074 16.0582 9.94281 16.1413V16.1912L9.97027 16.341C10.2116 17.5258 11.0236 18.3736 12.6303 18.6158V19.828L12.6369 19.9012C12.6702 20.066 12.8141 20.1875 13.0363 20.2316H13.7968L13.87 20.2249C14.0364 20.1916 14.1579 20.0485 14.2028 19.828V18.6149L14.375 18.5816C15.8003 18.2804 16.738 17.2496 16.738 15.9383C16.738 14.171 15.673 13.5653 13.543 13.3124C12.0212 13.1102 11.7175 12.7067 11.7175 11.9994C11.7175 11.2922 12.2251 10.8379 13.2385 10.8379C14.1512 10.8379 14.6588 11.1408 14.9117 11.8988C14.9381 11.9721 14.9862 12.0355 15.0498 12.0806C15.1133 12.1257 15.1891 12.1502 15.267 12.1509H16.0782L16.1439 12.1459C16.2263 12.1328 16.3011 12.0902 16.3543 12.0261C16.4076 11.9619 16.4357 11.8806 16.4335 11.7973V11.7473L16.4027 11.6034C16.2778 11.0862 15.9929 10.6216 15.5887 10.2756C15.1845 9.92968 14.6815 9.71999 14.1512 9.67641V8.4658L14.1446 8.39259C14.1113 8.22701 13.9673 8.10554 13.7452 8.06144H13.746Z" fill="#0038FF"/>
</g>
<defs>
<clipPath id="clip0_1_949">
<rect x="0.0782471" y="0.859375" width="26.625" height="26.625" rx="13.3125" fill="white"/>
</clipPath>
</defs>
</svg>
