<svg width="21" height="21" viewBox="0 0 21 21" fill="none" xmlns="http://www.w3.org/2000/svg">
<path d="M7.30646 10.2396C7.30646 8.35464 8.83413 6.82614 10.7191 6.82614C12.6041 6.82614 14.1326 8.35464 14.1326 10.2396C14.1326 12.1246 12.6041 13.6531 10.7191 13.6531C8.83413 13.6531 7.30646 12.1246 7.30646 10.2396ZM5.46118 10.2396C5.46118 13.1436 7.81513 15.4976 10.7191 15.4976C13.6231 15.4976 15.9771 13.1436 15.9771 10.2396C15.9771 7.33564 13.6231 4.98168 10.7191 4.98168C7.81513 4.98168 5.46118 7.33564 5.46118 10.2396ZM14.9564 4.77325C14.9564 5.45148 15.5064 6.00234 16.1855 6.00234C16.8637 6.00234 17.4146 5.45148 17.4146 4.77325C17.4146 4.09502 16.8645 3.54499 16.1855 3.54499C15.5064 3.54499 14.9564 4.09502 14.9564 4.77325ZM6.58191 18.5744C5.58359 18.5289 5.041 18.3627 4.68038 18.2221C4.20232 18.036 3.86155 17.8143 3.50258 17.4562C3.14444 17.098 2.92195 16.7573 2.73668 16.2792C2.59607 15.9186 2.42982 15.376 2.38433 14.3777C2.3347 13.2983 2.32478 12.9741 2.32478 10.2396C2.32478 7.5052 2.33553 7.1818 2.38433 6.10159C2.42982 5.10327 2.59689 4.56151 2.73668 4.20007C2.92278 3.722 3.14444 3.38123 3.50258 3.02226C3.86072 2.66412 4.20149 2.44163 4.68038 2.25636C5.041 2.11575 5.58359 1.9495 6.58191 1.90401C7.66129 1.85438 7.98552 1.84446 10.7191 1.84446C13.4535 1.84446 13.7769 1.85521 14.8571 1.90401C15.8555 1.9495 16.3972 2.11657 16.7587 2.25636C17.2367 2.44163 17.5775 2.66412 17.9365 3.02226C18.2946 3.3804 18.5163 3.722 18.7024 4.20007C18.843 4.56069 19.0092 5.10327 19.0547 6.10159C19.1044 7.1818 19.1143 7.5052 19.1143 10.2396C19.1143 12.9732 19.1044 13.2975 19.0547 14.3777C19.0092 15.376 18.8422 15.9186 18.7024 16.2792C18.5163 16.7573 18.2946 17.098 17.9365 17.4562C17.5783 17.8143 17.2367 18.036 16.7587 18.2221C16.3981 18.3627 15.8555 18.5289 14.8571 18.5744C13.7778 18.624 13.4535 18.634 10.7191 18.634C7.98552 18.634 7.66129 18.624 6.58191 18.5744ZM6.49755 0.0620333C5.40741 0.11166 4.66302 0.284526 4.01208 0.537622C3.33881 0.798988 2.76811 1.14968 2.19823 1.71873C1.62918 2.28779 1.27848 2.85849 1.01711 3.53259C0.764018 4.18352 0.591152 4.92792 0.541525 6.01805C0.491072 7.10984 0.479492 7.45888 0.479492 10.2396C0.479492 13.0204 0.491072 13.3694 0.541525 14.4612C0.591152 15.5513 0.764018 16.2957 1.01711 16.9467C1.27848 17.6199 1.62835 18.1915 2.19823 18.7605C2.76728 19.3296 3.33799 19.6794 4.01208 19.9416C4.66384 20.1947 5.40741 20.3676 6.49755 20.4172C7.59016 20.4668 7.93837 20.4792 10.7191 20.4792C13.5007 20.4792 13.8489 20.4677 14.9407 20.4172C16.0308 20.3676 16.7752 20.1947 17.4262 19.9416C18.0994 19.6794 18.6701 19.3296 19.24 18.7605C19.8091 18.1915 20.1589 17.6199 20.4211 16.9467C20.6742 16.2957 20.8479 15.5513 20.8967 14.4612C20.9463 13.3686 20.9579 13.0204 20.9579 10.2396C20.9579 7.45888 20.9463 7.10984 20.8967 6.01805C20.8471 4.92792 20.6742 4.18352 20.4211 3.53259C20.1589 2.85932 19.8091 2.28861 19.24 1.71873C18.671 1.14968 18.0994 0.798988 17.427 0.537622C16.7752 0.284526 16.0308 0.110833 14.9415 0.0620333C13.8497 0.0124067 13.5007 0 10.7199 0C7.93837 0 7.59016 0.0115795 6.49755 0.0620333Z" fill="white"/>
</svg>
