<svg width="22" height="21" viewBox="0 0 22 21" fill="none" xmlns="http://www.w3.org/2000/svg">
<g clip-path="url(#clip0_1_2138)">
<path d="M0.505493 2.57535C0.505493 1.90304 0.740804 1.34839 1.21141 0.91141C1.68201 0.47441 2.29381 0.25592 3.04678 0.25592C3.78631 0.25592 4.38464 0.471042 4.84181 0.901326C5.31241 1.34504 5.54772 1.9232 5.54772 2.63585C5.54772 3.28126 5.31915 3.81908 4.86198 4.24937C4.39138 4.69308 3.77286 4.91494 3.00644 4.91494H2.98627C2.24674 4.91494 1.64841 4.69308 1.19124 4.24937C0.734068 3.80565 0.505493 3.24764 0.505493 2.57535ZM0.767689 20.2232V6.75031H5.24519V20.2232H0.767689ZM7.72597 20.2232H12.2035V12.7001C12.2035 12.2295 12.2573 11.8665 12.3648 11.611C12.5531 11.1539 12.8388 10.7673 13.222 10.4513C13.6052 10.1353 14.0859 9.97734 14.6641 9.97734C16.17 9.97734 16.923 10.9925 16.923 13.0228V20.2232H21.4005V12.4985C21.4005 10.5084 20.9299 8.99915 19.9887 7.97053C19.0474 6.94192 17.8037 6.42761 16.2574 6.42761C14.5229 6.42761 13.1716 7.17386 12.2035 8.66636V8.7067H12.1833L12.2035 8.66636V6.75031H7.72597C7.75285 7.18058 7.76631 8.51844 7.76631 10.7639C7.76631 13.0094 7.75285 16.1625 7.72597 20.2232Z" fill="white"/>
</g>
<defs>
<clipPath id="clip0_1_2138">
<rect width="20.895" height="19.9673" fill="white" transform="translate(0.505371 0.255859)"/>
</clipPath>
</defs>
</svg>
