<svg width="60" height="83" viewBox="0 0 60 83" fill="none" xmlns="http://www.w3.org/2000/svg">
<g clip-path="url(#clip0_1_2143)">
<path d="M59.2202 0.2453L40.903 21.0117L18.7015 21.0485L0.302495 0.2453V41.8925C0.299258 41.9424 0.308798 42.091 0.331116 42.3382C0.366905 42.6339 0.478134 42.9155 0.654121 43.1559L29.7573 82.69L58.8359 43.1559C59.0119 42.9155 59.1231 42.6339 59.1589 42.3382C59.1884 42.1342 59.2088 28.1033 59.2202 0.2453Z" fill="black"/>
<path d="M33.2122 75.2233L31.9856 73.8209L41.2791 23.6979L57.3926 42.3259L33.2122 75.2233Z" fill="white"/>
<path d="M26.3065 75.2234L2.11792 42.3382L18.2314 23.7102L27.5249 73.8373L26.3065 75.2234Z" fill="white"/>
<path d="M47.8129 43.1231L39.6519 52.5066L38.3435 46.7498L47.8129 43.1231Z" fill="black"/>
</g>
<defs>
<clipPath id="clip0_1_2143">
<rect width="59.2857" height="83" fill="white"/>
</clipPath>
</defs>
</svg>
