<svg width="24" height="19" viewBox="0 0 24 19" fill="none" xmlns="http://www.w3.org/2000/svg">
<path d="M8.04922 18.4049C16.5578 18.4049 21.2109 11.3533 21.2109 5.23834C21.2109 5.03808 21.2068 4.83873 21.1978 4.64021C22.1032 3.98485 22.8845 3.17341 23.5053 2.24393C22.6764 2.61256 21.7845 2.86067 20.8488 2.97253C21.8038 2.39965 22.537 1.49334 22.883 0.413016C21.9749 0.95189 20.9815 1.33177 19.9456 1.53628C19.1014 0.636788 17.8997 0.0742188 16.569 0.0742188C14.0144 0.0742188 11.9428 2.1466 11.9428 4.70112C11.9428 5.06429 11.9835 5.41743 12.0629 5.75628C8.21823 5.56275 4.80909 3.72134 2.52751 0.921372C2.11658 1.62758 1.90043 2.4302 1.90115 3.24726C1.90115 4.85276 2.71778 6.27004 3.95969 7.09923C3.22509 7.07679 2.50661 6.87829 1.86467 6.52044C1.86399 6.53987 1.86399 6.5588 1.86399 6.57956C1.86399 8.82062 3.45848 10.6918 5.57513 11.1158C5.17759 11.2241 4.76738 11.2788 4.35536 11.2786C4.0578 11.2786 3.76781 11.2493 3.48598 11.1952C4.0749 13.0338 5.78259 14.3718 7.80726 14.4092C6.22399 15.6506 4.22956 16.3901 2.06191 16.3901C1.69317 16.3904 1.32472 16.369 0.958496 16.3259C3.00576 17.6386 5.43669 18.4046 8.04945 18.4046" fill="white"/>
</svg>
